<?xml version="1.0" encoding="utf-8"?>
<!-- Generator: Adobe Illustrator 24.0.2, SVG Export Plug-In . SVG Version: 6.00 Build 0)  -->
<svg version="1.1" id="Слой_1" xmlns="http://www.w3.org/2000/svg" xmlns:xlink="http://www.w3.org/1999/xlink" x="0px" y="0px"
	 viewBox="0 0 283.46 283.46" style="enable-background:new 0 0 283.46 283.46;" xml:space="preserve">
<style type="text/css">
	.st0{fill:#EA5822;}
</style>
<g>
	<path class="st0" d="M52.11,141.91l31.16,0.63c-0.41,1.42-0.79,2.82-1.14,4.23c-0.01,0.02-0.01,0.04-0.02,0.06
		c-0.17,0.69-0.34,1.38-0.5,2.07c-0.02,0.09-0.04,0.17-0.06,0.26c-0.16,0.68-0.31,1.37-0.46,2.05c-0.01,0.04-0.02,0.07-0.03,0.11
		c-0.15,0.7-0.3,1.4-0.44,2.1c-0.02,0.08-0.03,0.16-0.05,0.23c-0.14,0.71-0.28,1.42-0.42,2.14l-4.9,6.46l12.74,9.68l2.91,2.21h0
		l13,9.87l4.9-6.46l0.03,0.02c0.66-0.32,1.31-0.65,1.96-0.98c0.06-0.03,0.12-0.06,0.18-0.09c0.65-0.33,1.3-0.67,1.95-1.01
		c0.01,0,0.02-0.01,0.02-0.01c0.65-0.34,1.29-0.69,1.93-1.04c0.05-0.03,0.11-0.06,0.16-0.09c0.64-0.35,1.29-0.71,1.93-1.08
		c0.01,0,0.01-0.01,0.02-0.01c1.45-0.83,2.89-1.69,4.33-2.59l9.28,30.86c0.5,1.65,2.6,2.15,3.78,0.89l16.89-17.95
		c9.7-10.31,7.76-29.09-3.57-35.9c4.71-5.04,9.63-10.89,14.85-17.77c32.54-42.85,33.03-97.24,33.03-97.24s-52.26,15.08-84.8,57.93
		c-5.2,6.85-9.5,13.13-13.09,19.01c-9.81-8.16-27.59-4.84-34.71,6.94l-12.76,21.09C49.34,139.98,50.39,141.88,52.11,141.91z
		 M133.51,86.2c5.96-7.85,17.17-9.39,25.02-3.42c7.86,5.96,9.39,17.17,3.42,25.02c-5.96,7.86-17.17,9.39-25.02,3.42
		C129.08,105.25,127.55,94.05,133.51,86.2z"/>
	<path class="st0" d="M186.19,193.96h-10.53c-1.36,0-2.46,1.1-2.46,2.46v51.03c0,1.36,1.1,2.46,2.46,2.46h10.53
		c1.36,0,2.46-1.1,2.46-2.46v-51.03C188.65,195.06,187.55,193.96,186.19,193.96z"/>
	<path class="st0" d="M163.13,216.98H152.6c-1.36,0-2.46,1.1-2.46,2.46v28c0,1.36,1.1,2.46,2.46,2.46h10.53
		c1.36,0,2.46-1.1,2.46-2.46v-28C165.59,218.09,164.49,216.98,163.13,216.98z"/>
	<path class="st0" d="M209.24,166.5h-10.53c-1.36,0-2.46,1.1-2.46,2.46v78.49c0,1.36,1.1,2.46,2.46,2.46h10.53
		c1.36,0,2.46-1.1,2.46-2.46v-78.49C211.71,167.6,210.61,166.5,209.24,166.5z"/>
	<path class="st0" d="M232.3,141.6h-10.53c-1.36,0-2.46,1.1-2.46,2.46v103.38c0,1.36,1.1,2.46,2.46,2.46h10.53
		c1.36,0,2.46-1.1,2.46-2.46V144.07C234.77,142.71,233.66,141.6,232.3,141.6z"/>
	<path class="st0" d="M205.88,120.61l-9.87,2.7l9.69,2.65c-8.13,13.19-15.42,23.88-20.91,31.65c-10.93,15.44-36,49.3-64.88,65.99
		c-6.33,3.66-14.58,7.5-24.91,7c-0.56-0.03-1.11-0.07-1.65-0.12c2.95-1.19,5.03-2.88,6.31-3.93c1.18-0.97,2.35-1.92,3.38-3.3
		c2.56-3.4,2.84-7.46,2.72-10.06c-0.06,1.56-0.44,5.44-3.29,8.81c-4.23,5.01-10.64,5.01-12.65,5.01c-4.77,0-8.41-1.82-10.36-3.04
		c-1.09-1.8-1.74-3.75-1.59-5.85c0.39-5.29,5.79-9.9,10.73-14.12c3.49-2.98,5.03-3.47,7.13-6.26c2.94-3.89,3.9-8.17,4.23-11.27
		l-26.19-19.89c-2.26,0.99-5.3,2.55-8.54,4.98c-5.82,4.36-9.05,9.09-10.19,10.86c-4.06,6.31-5.31,12.05-5.63,13.67
		c-0.98,4.96-0.79,9.18-0.45,11.98c1.49-2.91,2.94-5.17,4-6.69c2.93-4.23,5.41-7.71,9.81-10.07c2.26-1.21,4.33-1.74,5.63-2
		c-2.09,1.92-5.22,5.27-7.57,10.25c-0.74,1.56-3.87,8.49-3,17.61c1.39,14.6,11.92,23.26,13.7,24.67c10.14,8.07,21.37,8.08,26.3,8.08
		c17.41,0,32.8-9.64,41.04-21.59c1.43-2.07,2.44-3.92,3.1-5.22c-1.66,1.81-4.14,4.29-7.41,6.91c-4.48,3.58-8.88,7.1-14.16,9.21
		c2.95-2.17,6.03-4.65,9.16-7.46c9.33-8.38,13.03-14.3,27.39-33.4c20.13-26.77,19.49-23.96,28-36.48
		c5.66-8.34,13.24-20.32,21.1-35.73l7.1,7.03l-2.6-9.89l2.6-9.89L205.88,120.61z"/>
</g>
</svg>
